<?xml version="1.0" standalone="no"?>
<!DOCTYPE svg PUBLIC "-//W3C//DTD SVG 20010904//EN"
 "http://www.w3.org/TR/2001/REC-SVG-20010904/DTD/svg10.dtd">
<svg version="1.0" xmlns="http://www.w3.org/2000/svg"
 width="640.000000pt" height="640.000000pt" viewBox="0 0 640.000000 640.000000"
 preserveAspectRatio="xMidYMid meet">

<g transform="translate(0.000000,640.000000) scale(0.100000,-0.100000)"
fill="#000000" stroke="none">
<path d="M4785 5338 c-3 -7 -38 -184 -79 -393 -41 -209 -79 -400 -85 -425 -34
-155 -51 -240 -56 -272 l-6 -38 -103 0 c-57 0 -124 -3 -150 -6 l-46 -7 -1
-636 c0 -369 -4 -627 -9 -615 -28 69 -132 124 -236 124 l-53 0 -3 73 -3 72
-200 0 -200 0 -7 -85 c-10 -122 -18 -143 -58 -154 -29 -9 -35 -7 -52 15 -11
13 -36 42 -55 64 -20 22 -54 64 -77 93 -22 28 -44 52 -48 52 -24 0 1 31 60 72
138 98 208 181 257 303 26 65 27 76 23 185 -5 125 -15 158 -73 246 -47 70
-115 128 -197 167 l-68 32 0 48 c0 64 -18 135 -44 172 -30 44 -49 65 -58 65
-5 0 -8 -58 -8 -129 l0 -128 -117 -5 c-151 -7 -239 -38 -347 -123 -42 -32
-126 -141 -126 -162 0 -7 -5 -13 -10 -13 -6 0 -9 -3 -8 -7 1 -5 -5 -30 -14
-58 -37 -111 -31 -283 13 -382 11 -23 19 -44 19 -48 0 -3 22 -42 50 -86 27
-44 50 -84 50 -89 0 -5 -9 -11 -19 -15 -11 -3 -61 -47 -113 -98 -140 -139
-188 -242 -188 -407 0 -105 19 -183 68 -273 67 -125 200 -225 359 -273 78 -24
105 -27 238 -27 129 0 163 3 245 25 52 14 120 37 149 52 30 14 56 24 59 22 4
-5 -59 -340 -78 -416 -5 -19 -19 -84 -30 -145 -11 -60 -29 -153 -40 -205 -11
-52 -34 -167 -51 -255 -17 -88 -34 -173 -39 -190 -4 -16 -20 -96 -36 -178 -15
-81 -28 -146 -29 -145 -1 2 -5 142 -9 313 -7 309 -15 407 -18 219 0 -54 -3
-84 -5 -66 -3 19 -10 32 -19 32 -8 0 -14 5 -14 11 0 15 -30 -17 -31 -33 0 -7
-4 -3 -9 8 -7 19 -20 23 -89 29 -45 4 -81 10 -81 14 0 3 37 4 82 3 46 -2 79 0
75 5 -5 4 -40 9 -78 9 -153 3 -159 4 -159 18 0 10 -22 16 -80 21 -71 6 -80 9
-80 27 0 17 -6 20 -43 17 -39 -4 -43 -2 -39 17 3 18 0 20 -33 16 -44 -5 -86
14 -78 35 5 11 -1 14 -24 12 -24 -3 -38 4 -64 31 -27 29 -34 32 -37 17 -5 -24
-13 -22 -50 17 -21 23 -32 44 -32 64 0 28 -3 31 -30 30 -32 -1 -37 -7 -18 -26
9 -9 7 -12 -11 -12 -18 0 -22 4 -18 20 3 12 0 20 -8 20 -7 0 -20 11 -29 25 -9
14 -27 27 -41 31 -14 3 -25 10 -25 15 0 5 -7 9 -15 9 -9 0 -21 5 -28 10 -7 6
-24 19 -39 31 -16 11 -28 27 -28 35 0 8 -3 13 -7 12 -10 -3 -63 43 -63 54 0
11 -39 49 -66 64 -10 6 -20 21 -22 33 -2 12 -10 25 -18 28 -8 3 -14 11 -14 19
0 8 -4 14 -8 14 -4 0 -13 14 -19 31 -8 19 -23 34 -42 42 -31 11 -40 31 -21 40
6 3 6 5 -1 3 -16 -3 -69 49 -69 68 0 9 -7 19 -15 22 -19 8 -19 24 0 24 8 0 15
5 15 11 0 6 -7 8 -16 5 -9 -3 -28 -9 -42 -12 l-27 -6 29 16 c15 9 37 16 48 16
10 0 17 4 14 9 -3 5 8 14 25 21 17 8 47 24 66 37 20 13 42 22 49 19 8 -3 11 0
7 10 -3 7 0 14 7 14 20 0 127 101 178 169 60 80 126 209 153 300 11 36 25 84
32 106 8 27 12 115 12 265 0 213 -2 231 -28 330 -15 58 -46 143 -69 190 -23
47 -42 91 -41 97 0 7 -3 10 -8 8 -4 -3 -20 14 -35 37 -59 93 -195 207 -316
263 -26 12 -44 26 -40 30 4 4 -3 4 -15 1 -13 -4 -23 -4 -23 1 0 8 -45 23 -114
38 -23 5 -27 8 -15 16 9 6 -1 8 -31 4 -32 -3 -37 -2 -15 3 28 7 29 8 10 20
-19 11 -19 11 5 12 24 1 24 1 5 12 -19 11 -19 11 0 18 17 6 7 15 -55 56 -41
26 -84 53 -95 59 -11 7 -65 38 -120 70 -166 96 -234 135 -240 135 -9 0 -125
-241 -120 -249 6 -11 163 -101 175 -101 5 0 10 -4 10 -10 0 -5 7 -10 15 -10 8
0 15 -4 15 -10 0 -6 -73 -10 -200 -10 -184 0 -200 -1 -200 -17 0 -10 0 -169 0
-354 0 -185 -2 -343 -6 -352 -3 -9 -12 -13 -21 -10 -15 6 -16 -16 -10 -213 4
-120 14 -264 22 -319 11 -73 15 -185 15 -410 0 -170 0 -316 0 -322 0 -10 27
-13 103 -13 l102 -1 65 -122 c176 -331 416 -611 730 -850 135 -103 344 -220
575 -322 251 -110 655 -195 932 -195 94 0 782 137 1025 204 165 45 474 184
594 267 24 16 45 29 48 29 9 0 141 96 221 161 119 97 334 316 369 378 5 8 18
25 29 36 38 39 167 244 231 366 118 227 211 506 253 764 26 161 26 619 -1 755
-10 52 -24 124 -31 160 -24 127 -109 391 -145 452 -5 10 -10 25 -10 33 0 8 -4
15 -10 15 -5 0 -10 5 -10 11 0 17 -69 159 -106 217 -19 29 -34 54 -34 56 0 12
-84 129 -189 261 -76 95 -279 295 -371 364 -41 31 -83 63 -92 71 -9 8 -30 23
-47 33 -24 14 -32 15 -36 5z m-1543 -1176 c131 -44 226 -125 282 -242 29 -61
31 -72 31 -180 0 -108 -2 -119 -31 -180 -39 -83 -129 -180 -245 -265 -49 -36
-89 -68 -89 -72 0 -7 97 -124 255 -306 50 -58 70 -75 76 -65 21 32 61 179 67
248 l7 75 160 0 160 0 -3 -75 c-6 -175 -51 -345 -123 -464 -25 -42 -37 -71
-32 -80 4 -7 31 -40 59 -72 127 -146 204 -238 204 -246 0 -4 -94 -8 -209 -8
l-209 0 -49 56 -50 56 -94 -45 c-144 -69 -254 -90 -431 -85 -118 4 -156 9
-221 30 -147 49 -266 148 -327 272 -65 135 -65 322 2 447 37 69 144 182 231
244 31 22 57 44 57 48 0 4 -18 35 -40 67 -51 75 -105 182 -120 240 -19 69 -14
216 10 291 50 164 186 284 365 323 89 20 229 14 307 -12z m-1800 -25 c169 -45
298 -118 404 -229 110 -115 180 -243 225 -414 22 -80 24 -110 24 -299 0 -186
-3 -220 -23 -295 -85 -322 -275 -531 -568 -624 -117 -37 -227 -46 -567 -46
l-307 0 0 966 0 965 378 -4 c298 -3 389 -7 434 -20z m3633 8 c178 -31 332
-113 456 -242 140 -146 217 -320 239 -542 25 -258 -1 -467 -81 -639 -130 -280
-373 -452 -684 -482 -109 -10 -664 -14 -689 -4 -14 6 -16 100 -16 965 l0 959
344 0 c262 0 364 -4 431 -15z m-485 -1955 c236 0 330 -3 330 -11 0 -14 -40
-89 -57 -107 -7 -7 -13 -17 -13 -22 0 -18 -138 -189 -215 -266 -161 -162 -285
-249 -494 -350 -40 -19 -86 -38 -101 -41 l-28 -5 9 43 c6 24 23 112 39 194 61
312 91 464 116 580 14 66 33 161 44 210 10 50 22 115 27 145 6 40 9 -2 11
-157 l2 -213 330 0z m-2400 -655 c7 -8 8 -15 2 -15 -5 0 -15 7 -22 15 -7 8 -8
15 -2 15 5 0 15 -7 22 -15z"/>
<path d="M3004 3869 c-40 -11 -90 -63 -105 -107 -26 -79 8 -202 81 -292 l28
-35 69 47 c132 92 163 135 163 231 0 120 -110 193 -236 156z m116 -44 c29 -15
30 -19 31 -83 0 -47 3 -61 9 -47 5 11 9 35 9 54 1 29 3 32 16 21 37 -31 -2
-188 -45 -177 -12 3 -17 0 -14 -8 5 -11 -65 -65 -85 -65 -5 0 -11 -5 -13 -12
-6 -18 -26 0 -50 45 -12 23 -23 44 -23 47 -1 3 -7 18 -13 33 -50 121 69 248
178 192z"/>
<path d="M2868 3000 c-47 -39 -97 -140 -105 -211 -4 -41 0 -68 16 -110 47
-125 166 -185 319 -160 66 10 182 57 182 73 0 8 -217 263 -345 405 l-30 34
-37 -31z m128 -140 c22 -25 66 -76 98 -113 54 -65 57 -71 55 -118 -2 -36 -8
-53 -20 -60 -31 -16 -160 -10 -204 10 -131 59 -156 250 -49 365 l27 28 26 -33
c14 -19 44 -54 67 -79z"/>
<path d="M1022 3199 l3 -644 110 -3 c206 -5 314 29 408 127 93 98 130 195 149
389 14 152 -1 354 -33 452 -46 141 -128 237 -245 285 -64 27 -80 29 -232 33
l-162 4 2 -643z m332 581 c5 -5 16 -10 24 -10 32 0 107 -47 147 -93 91 -101
124 -229 126 -487 1 -217 -23 -322 -101 -435 -56 -81 -148 -129 -184 -95 -4 4
-7 56 -7 114 1 100 0 106 -19 106 -17 0 -20 6 -20 49 0 41 -4 51 -20 56 -29 9
-25 25 7 25 36 0 29 6 -112 90 -66 40 -123 78 -127 84 -5 6 -7 83 -5 171 2
153 3 160 22 157 11 -2 31 -12 45 -22 14 -9 36 -20 50 -24 l25 -7 -23 17 c-23
17 -23 17 -3 38 16 17 20 38 22 111 2 50 7 93 13 97 17 11 -48 58 -81 58 -16
0 -16 2 -3 11 19 13 209 4 224 -11z m-107 -736 c-3 -3 -12 -4 -19 -1 -8 3 -5
6 6 6 11 1 17 -2 13 -5z m93 -244 c0 -11 -4 -20 -10 -20 -5 0 -10 9 -10 20 0
11 5 20 10 20 6 0 10 -9 10 -20z m-17 -187 c-7 -2 -21 -2 -30 0 -10 3 -4 5 12
5 17 0 24 -2 18 -5z"/>
<path d="M1445 2680 c-3 -6 1 -7 9 -4 18 7 21 14 7 14 -6 0 -13 -4 -16 -10z"/>
<path d="M4700 3196 l0 -646 118 0 c149 0 222 12 298 50 121 59 208 185 240
345 22 109 23 400 1 508 -35 171 -129 297 -263 352 -64 27 -81 29 -231 33
l-163 4 0 -646z m203 595 c5 -1 6 -5 3 -10 -4 -5 -2 -11 2 -13 17 -7 96 -187
132 -302 61 -193 74 -283 74 -506 0 -129 -4 -217 -13 -261 -13 -62 -16 -67
-49 -79 -35 -12 -293 -33 -302 -23 -7 7 -12 1122 -5 1160 3 18 13 33 22 35 13
2 93 2 136 -1z"/>
<path d="M3495 5287 c-56 -29 -156 -79 -223 -111 l-122 -59 0 -184 0 -184 112
3 112 3 39 95 c21 52 43 103 48 113 5 9 23 51 39 91 16 41 38 94 49 118 27 58
61 147 61 158 0 16 -9 12 -115 -43z"/>
<path d="M1169 4973 c-30 -38 -64 -79 -77 -93 -51 -55 -54 -51 106 -140 208
-116 388 -210 402 -210 9 0 10 4 2 13 -8 10 -4 22 18 47 17 19 30 38 30 43 0
4 7 7 15 7 9 0 15 9 15 21 0 12 5 19 12 17 18 -6 49 35 35 45 -7 5 -1 7 16 4
15 -2 27 -3 27 -2 0 2 -20 15 -45 29 -25 15 -45 31 -45 36 0 6 -5 10 -12 10
-6 0 -103 54 -214 120 -112 66 -209 120 -217 120 -7 0 -38 -30 -68 -67z"/>
<path d="M1765 4700 c-3 -6 1 -7 9 -4 18 7 21 14 7 14 -6 0 -13 -4 -16 -10z"/>
<path d="M1444 4255 c11 -8 24 -15 30 -15 5 0 1 7 -10 15 -10 8 -23 14 -29 14
-5 0 -1 -6 9 -14z"/>
<path d="M1665 2270 c-3 -5 -1 -10 4 -10 6 0 11 5 11 10 0 6 -2 10 -4 10 -3 0
-8 -4 -11 -10z"/>
</g>
</svg>
